# xmcd
#
# Track frame offsets: 
#        150
#        14559
#        26105
#        40291
#        51818
#        66123
#        80665
#        94200
#        104503
#        117018
#        130937
#        145895
#        161225
#        162864
#        179716
#        196517
#        222970
#        242800
#        256971
#        272381
#        294061
#        313924
#        331069
#
# Disc length: 4675 seconds
#
# Revision: 1
# Processed by: cddbd v1.5.2PL0 Copyright (c) Steve Scherf et al.
# Submitted via: ExactAudioCopyFreeDBPlugin 1.0
#
DISCID=4f124117
DTITLE=Miles Davis - The complete birth of the cool
DYEAR=1949
DGENRE=Jazz
TTITLE0=Jeru
TTITLE1=Move
TTITLE2=Godchild
TTITLE3=Budo [hallucinations]
TTITLE4=Venus de Milo
TTITLE5=Rouge
TTITLE6=Boplicity
TTITLE7=Israel
TTITLE8=Deception
TTITLE9=Rocker
TTITLE10=Moondreams
TTITLE11=Darn that dream
TTITLE12=Theme (live)
TTITLE13=Move (live)
TTITLE14=Why do i love you? (live)
TTITLE15=Godchild (live)
TTITLE16=S'il vous plait (live)
TTITLE17=Moondreams (live)
TTITLE18=Budo [hallicinations] (live)
TTITLE19=Move (live)
TTITLE20=Darn that dream (live)
TTITLE21=Moondreams (live)
TTITLE22=Budo [hallcinations] (live)
EXTD=YEAR: 1949
EXTT0=
EXTT1=
EXTT2=
EXTT3=
EXTT4=
EXTT5=
EXTT6=
EXTT7=
EXTT8=
EXTT9=
EXTT10=
EXTT11=
EXTT12=
EXTT13=
EXTT14=
EXTT15=
EXTT16=
EXTT17=
EXTT18=
EXTT19=
EXTT20=
EXTT21=
EXTT22=
PLAYORDER=
